<?xml version="1.0" encoding="utf-8"?>
<!-- Generator: Adobe Illustrator 22.0.1, SVG Export Plug-In . SVG Version: 6.00 Build 0)  -->
<svg version="1.1" id="Layer_2" xmlns="http://www.w3.org/2000/svg" xmlns:xlink="http://www.w3.org/1999/xlink" x="0px" y="0px"
	 viewBox="0 0 195.5 272.6" style="enable-background:new 0 0 195.5 272.6;" xml:space="preserve">
<style type="text/css">
	.st0{fill:#776767;}
	.st1{fill:#A09191;}
	.st2{fill:#665959;}
	.st3{fill:#BC2A2A;}
	.st4{fill:#A51212;}
	.st5{fill:#D35959;}
	.st6{fill:#2E7C71;}
	.st7{fill:#DBD6C2;}
	.st8{fill:#938686;}
	.st9{fill:#706363;}
	.st10{fill:#685757;}
	.st11{fill:#492D27;}
	.st12{fill:#635353;}
	.st13{fill:#CEBBBB;}
	.st14{fill:#D35662;}
	.st15{fill:none;}
	.st16{fill:#576677;}
	.st17{fill:#CE386E;}
	.st18{fill:#F15187;}
	.st19{fill:#F1588E;}
	.st20{fill:#E24777;}
	.st21{fill:#FFAEDD;}
	.st22{fill:#EA83D3;}
	.st23{fill:#3083D3;}
	.st24{fill:#4EA899;}
	.st25{fill:#473A3A;}
	.st26{fill:#847777;}
	.st27{fill:#E0CFCF;}
	.st28{fill:#41B7A8;}
	.st29{fill:#247265;}
	.st30{fill:#4B5D6D;}
	.st31{fill:#D8CBCB;}
	.st32{fill:#BFB8A2;}
	.st33{fill:#AA661D;}
	.st34{fill:#2C776B;}
	.st35{fill:#C1B0B0;}
	.st36{fill:#593A35;}
	.st37{fill:#FCECE5;}
	.st38{fill:#328C7C;}
	.st39{fill:#EFC51A;}
	.st40{fill:#DBB103;}
	.st41{fill:#F4E7B2;}
	.st42{fill:#657C91;}
	.st43{fill:#CC7E39;}
	.st44{fill:#405468;}
</style>
<path class="st0" d="M128.4,180.8c1.1,5.2,5.4,9.4,10.6,10.5c10.3,2.1,21.6-0.3,29.7-7.1c2.6-2.1,4.9-4.6,6.8-7.4
	c1.5-2.4,2.7-5,3.8-7.6c1.4-3.3,2.6-6,3.2-9.6c0-0.2,0.1-0.5,0.2-0.6c0.2-0.2,0.5-0.3,0.8-0.2c1.1,0.1,2.2,0.6,3.1,1.3
	c0.9,0.7,1.6,1.6,2.3,2.5c2.6,3.3,5.5,9.5,2,13.1c0.4,0.5,0.8,0.2,1.2,0.5c0.5,0.4,0.8,1.1,1.1,1.7c0.4,0.7,0.8,1.4,1.1,2.1
	c0.8,2.6-0.8,5.8-3.4,6.6c1.5-0.5,0.6,6.1,0.4,6.7c-0.7,2-1.9,5.1-4.6,4.4c1.1,1.4,0.6,3.7-0.7,4.9c-1.3,1.2-3.2,1.7-5,1.9
	c-0.9,0.1-2.1,0.3-2.4,1.1c-0.3,0.6-0.1,1.3-0.3,1.9c-0.2,0.7-1,1.2-1.6,1.6c-5.6,3.1-12.1,4.6-18.4,4.3c-1.1,0-2.2-0.1-3.3,0.1
	c-1.2,0.2-2.2,0.8-3.4,1.3c-6.8,2.7-14.9-0.5-20-5.8c-5.1-5.3-7.9-12.4-10.6-19.2"/>
<path class="st1" d="M125.9,187.5c4,11.5,23.8,13.1,33.7,11c15.6-3.4,21.9-20.9,27.6-33.7c1.7-3.7-3.9-7-5.6-3.2
	c-4.7,10.6-8.8,23.4-19.7,29.2c-5.1,2.7-11.9,2.4-17.4,1.4c-3.6-0.6-11-2.5-12.4-6.4C130.7,181.9,124.5,183.6,125.9,187.5
	L125.9,187.5z"/>
<path class="st2" d="M195.3,180.1c-0.2-0.8-0.7-1.5-1.1-2.1c-0.3-0.6-0.6-1.3-1.1-1.7c-0.4-0.3-0.8-0.1-1.2-0.5
	c3.6-3.6,0.6-9.8-2-13.1c-0.7-0.9-1.4-1.8-2.3-2.5c-0.7-0.6-1.6-1.1-2.6-1.3c3.6,5.3,5.2,11.3,5.7,18.2c0.3,3.8-0.1,7.6-1.7,11.1
	c-1.4,3.2-3.3,5.5-6,7.6c-0.6,0.4-1.1,0.8-1.7,1.2c-0.1,0.2-0.2,0.4-0.3,0.6c-1.6,3-3.8,5.2-6.7,7c-3.7,2.3-8,3.5-12.4,3.7
	c-0.6,0-1.2,0-1.8,0c-3,1.3-6.4,1.9-9.6,1.9c-6,0-12-2.2-16.7-5.8c-5.4-4.2-8.6-9.9-10.4-16.2l-1.6,2c2.7,6.9,5.5,13.9,10.6,19.2
	c5.1,5.3,13.1,8.5,20,5.8c1.1-0.4,2.2-1,3.4-1.3c1.1-0.2,2.2-0.1,3.3-0.1c6.4,0.2,12.8-1.3,18.4-4.3c0.7-0.4,1.4-0.8,1.6-1.6
	c0.2-0.6,0-1.3,0.3-1.9c0.4-0.9,1.5-1,2.4-1.1c1.8-0.2,3.7-0.6,5-1.9c1.3-1.2,1.9-3.5,0.7-4.9c2.7,0.7,3.9-2.4,4.6-4.4
	c0.2-0.6,1.1-7.2-0.4-6.7C194.5,185.9,196.1,182.8,195.3,180.1z"/>
<path class="st3" d="M109.8,170.2c5.4,1.1,11,2.2,15.5,5.4c1.6,1.1,3.1,2.6,3.6,4.6c0.5,1.9-0.1,3.9-0.7,5.8
	c-3.3,9.1-8.8,17.4-16.1,23.9c-1.2,1.1-2.4,2.1-3.5,3.3c-2.9,3.4-4.1,8.1-4,12.7s1.3,8.9,2.5,13.3c1.2,4.6,2.5,9.2,3.7,13.7
	c-4.1,0.7-8.2,1.4-12.3,2c-0.4,0.1-0.9,0.1-1.3,0c-0.5-0.1-1-0.5-1.4-0.9c-4.7-4.6-9.6-9.5-11.9-15.6c-0.8-2.2-1.3-4.5-2-6.7
	c-0.8-2.5-1.2-5.1-1.7-7.7c-0.5-2.8-0.9-5.5-1.4-8.3c-0.6-3.7-1-7.3-0.6-11c0.4-4.4,2.2-8.9,5.8-11.5c-12.6-0.9-24.2,6.7-33.1,15.6
	c-4.2,4.2-8.1,8.9-9.7,14.5c-1.8-2.7-3.5-5.4-5.2-8.2c-1-1.6-2-3.2-2.5-5c-1-3.5,0-7.2,1.2-10.5c3.7-9.8,10.5-18.5,19-24.5
	c6-4.2,12.9-7.2,20.1-8.7c3.1-0.6,6.5-1.3,9.7-1.2c3.9,0,8.2,1.5,12,2.3C100.4,168.3,105.1,169.3,109.8,170.2z"/>
<path class="st4" d="M128.7,179.4c-0.5-1.9-2-3.4-3.6-4.6c-3.9-2.8-8.7-4-13.4-5c4.2,6.6,4.6,14.8,1.2,22.4
	c-3.5,7.9-11.2,11.2-14.8,18.2c-2.3,4.5-2.9,12.7-1.2,18.8c1.1,4.2,2.4,8.5,4.1,12.5c0.7,1.6,1.5,3.2,2.2,4.8
	c0.1,0.2,0.2,0.4,0.3,0.6c0,0.1,0.1,0.1,0.1,0.2c1.8,1.4,3,3.3,3.6,5.3c1.2-0.2,2.3-0.4,3.5-0.6c-1.2-4.6-2.5-9.2-3.7-13.7
	c-1.2-4.4-2.4-8.8-2.5-13.3c-0.1-4.5,1-9.2,4-12.7c1-1.2,2.3-2.2,3.5-3.3c7.2-6.5,12.8-14.8,16.1-23.9
	C128.6,183.3,129.2,181.3,128.7,179.4z"/>
<path class="st4" d="M82.2,193.1c1.5-1.4,3.8-2.3,4.9-3.9c-4.3-0.5-8.8-1.5-13.2-0.9c-4.2,0.5-8.2,2.4-11.8,4.5
	c-6.1,3.5-12,7.8-16.9,12.8c-2.2,2.3-4.4,5.5-5.4,8.5c-0.5,1.5-0.8,3-0.6,4.6c0.1,0.8,0.3,1.6,0.6,2.4c0.1,0.4,1.2,1.9,1.1,2.2
	C45.3,207.7,66.1,192.8,82.2,193.1z"/>
<path class="st5" d="M81.6,194.1c-5.6,11.2-4,21.3-1.2,33.2c2.4,10.4,6.3,21.5,14.8,28.5c0.9,0.8,5-1,4.4-1.6
	c-8.4-7-12.1-18-14.5-28.2c-1.2-5-2.4-10.1-2.8-15.3c-0.4-6.4,1.2-11.8,4-17.5C86.5,192.6,82.2,192.9,81.6,194.1L81.6,194.1z"/>
<path class="st5" d="M81.8,164.8C69.5,166,57.3,173,48,180.9c-8.7,7.4-13.4,17.6-16.4,28.5c-0.5,2,4.2,1.4,4.7-0.5
	c2.6-9.6,6.6-18.7,14-25.6c8.1-7.5,19.9-14.4,31-15.5C83.8,167.6,85,164.5,81.8,164.8L81.8,164.8z"/>
<path class="st6" d="M115.3,124.3c-2.1-2.9-2.6-6.7-3.1-10.3c-0.6-3.6-1.6-7.4-4.4-9.6c-2-1.6-4.5-2.2-7-2.6c-1.7-0.3-3,1-4.4,1.8
	c-1.9,1.2-3.3,2.9-5.1,4.1c-6,4.2-11.8,1.4-18.2,2.1c-5.4,0.6-11.9,7.5-14.9,11.4c-4.7,6-5.8,7.7-9.4,14.5
	c-3.5,6.8-7.3,18.1-6.7,25.7c4.3-1.3,8.8-1.9,13.3-1.7c-1.9-4.5,0.3-9.6,2.9-13.8c2.3-3.8,5.1-7.4,9.1-9.5
	c7.6,8.7,12.7,19.5,14.5,30.9c4.4,0.1,8.8,1.2,13.1,2.2c6.3,1.5,12.6,3,18.9,4.5c2.9,0.7,5.9,1.4,8.7,2.7c2.6,1.2,4.6,3.3,7,4.7
	c3.5-3.8,1.7-16.5,1.1-21.4c-0.8-7.2-2.6-14.4-5.6-21c-1.5-3.3-3.7-5.4-5.6-8.3c-2.2-3.3-3.2-7.8-4.6-11.6c-1.2-3.3-2.4-6.5-3.6-9.8
	c-0.5-1.5-1.1-2.9-1.6-4.4c-0.3-0.8-0.7-1.7-1.4-2.1c-0.6-0.3-1.2-0.3-1.9-0.4c-2.3,0-5.3-0.5-7.6,0.1"/>
<path class="st7" d="M12.7,206.4c1.3-0.6,2.6-1,4-1.3c1.2-0.3,2.5-0.6,3.8-0.6c2.2-0.1,4.4,0.5,6.4,1.3c6.6,2.5,12.5,6.8,16.9,12.3
	c0.5,0.6,1,1.3,1.2,2c0.4,1.6-0.5,3.3-1.4,4.7c-0.8,1.2-1.7,2.4-2.6,3.5c-0.7,0.8-1.5,1.7-2.6,1.7c0,0.3,0,0.5,0,0.8
	c-5.4-3.2-10.2-7.1-15.8-10c-3.9-2-7.9-3.6-11.5-6.1c-1.4-1-4-2.4-3-4.2C9,208.9,11.1,207.2,12.7,206.4z"/>
<path class="st7" d="M79.7,258.2c-1.3,0.7-2.6,1.5-3.6,2.6c-2,2-3,4.8-2.8,7.6c0,0.6,0.1,1.2,0.5,1.6c0.3,0.3,0.6,0.5,1,0.6
	c3.8,1.7,8,1.7,12.1,1.7c8.1,0,16.2,0,24.2-0.1c1.4,0,3.1-0.2,3.7-1.4c0.3-0.7,0.3-1.5,0.2-2.2c-0.6-4.5-1.3-10.3-3.5-14.2
	c-2.2-3.9-6.5-0.1-10.4-0.6c-2-0.3-3.4-1.6-5.3-2C90.8,250.9,83.8,255.9,79.7,258.2z"/>
<path class="st8" d="M10.4,40.4c0.3,0.9,0.7,1.7,1.2,2.6c2.5,4.9,5.9,9.7,10.5,12.8c2.6,1.7,5.6,2.6,8.6,3.4c1.9-3.2,4.1-6.3,6.6-9
	c-2.3-0.6-3.6-3-5.1-4.9c-2.4-3.1-5.9-5.1-9.4-6.8c-3.5-1.7-7.2-3.1-10.4-5.3c-1.6-1-2.7-2.7-3.9-4c-0.1-0.1,0.4,6.1,0.5,6.8
	C9.4,37.6,9.9,39,10.4,40.4z"/>
<path class="st8" d="M101.8,3.9c0.7,1.7,1,3.5,1.3,5.3c0.4,2.8,0.9,5.6,1.3,8.4c0.9,5.9,1.8,11.9,0.3,17.6c-5-4.3-10.9-7.5-17.2-9.3
	c-0.4-0.1-0.8-0.2-0.9-0.6c-0.1-0.3,0-0.6,0.1-0.9c0.7-2.1,1.3-4.3,2-6.4c0.9-2.8,1.8-5.6,3-8.2C92,8.9,92.5,8,93,7
	c0.9-1.8,2-5.7,4.1-6.5C99.2-0.3,101,2.3,101.8,3.9z"/>
<path class="st0" d="M110.6,73.7c1.3-1.5,2-2.8,3.8-3.8c1.8-1,3.4-2.4,4.8-3.9c0.4-0.4,0.8-0.8,1.1-1.3c2.7-4.1-0.9-13.8-2.7-17.8
	c-2.1-4.6-9.6-14.8-14.1-17.6c-4.6-2.8-6-3.2-11.3-4.7c-3.2-1-6.7-1.1-10-1.1c-8.3-0.1-16.9,0.4-24.4,4C54.7,29,51.8,31,49,33.2
	C42.9,38,37.3,43.7,33.2,50.3s-6.6,14.4-6.5,22.2c0,1.3,0.1,2.5-0.3,3.7c-1,2.7-4.2,3.9-6,6.1c-2.4,3.1-1.8,7.5-0.9,11.4
	c0.3,1.2,0.5,2.5,1.3,3.5c1.6,2,4.6,1.9,7.1,1.7c8.7-0.8,17.4-1.7,26.1-2.7c10.4-1.2,20.8-2.6,30.7-5.9
	C94.5,87,103.9,81.7,110.6,73.7z"/>
<path class="st9" d="M54.4,68.4c1.5-1.8,2.9-3.8,3.9-6c0.4-0.8,0.7-1.6,1.1-2.4c1.4-2.7,4-4.7,6.4-6.6c2.3-1.8,4.7-3.6,7.6-4.1
	c2.3-0.5,4.6-0.1,6.9,0.3c1.4,0.3,2.9,0.6,4.2,1.3c2.4,1.5,3.6,4.5,3.4,7.3s-1.6,5.4-3.5,7.6c-4.6,5.5-11.7,8.4-18.8,9.6
	c-4,0.7-8.1,0.8-12.1,0.8c-1.3,0-8,1.4-6.7-2c0.4-1,2.1-1.1,3-1.6C51.6,71.7,53.1,70,54.4,68.4z"/>
<path class="st10" d="M95.6,26.5c8.3,4.4,15.2,12.3,16,21.6c0.7,8.3-3.9,15.7-7.7,22.7c-0.8,1.5-1.7,3-2.7,4.5
	C98,79.7,93.5,83,89,86.1c3.1-1.7,6.2-3.3,9.3-5c5.3-2.8,10.6-5.7,15.2-9.6c2.1-1.8,4.1-3.9,5.3-6.4c2-4,2-8.8,0.8-13.2
	s-3.5-8.3-6-12c-4.1-6.3-9.3-12.7-16.6-14.6c-0.8-0.2-1.9,0-1.8,0.8"/>
<ellipse class="st11" cx="65.4" cy="63.9" rx="3.8" ry="3.3"/>
<ellipse transform="matrix(0.9859 -0.1674 0.1674 0.9859 -10.8191 6.5197)" class="st11" cx="33.3" cy="67.4" rx="4.2" ry="2.9"/>
<path class="st12" d="M47.9,51c0.1,0,0.2,0,0.4-0.1c0.9-0.1,1.9-0.3,2.8-0.5c3.8-0.8,7.6-1.9,11.2-3.4c8.4-3.5,15.2-10.7,18.1-19.4
	c-1.1-1.1-3-0.5-4,0.6c-1,1.1-1.5,2.6-2.4,3.9c-1.1,1.6-2.8,2.7-4.5,3.7c-8.4,5.1-17.7,8.9-27.3,11.3c-1.7,0.4-3.5,0.7-5.2,1
	c-2.3,0.5-2.5,0.7-2.5,3.1c3,1.1,6.3,0.6,9.4,0.1C45.3,51.4,46.6,51.2,47.9,51z"/>
<path class="st13" d="M26.3,90.5c9.9-4.5,20.2-7.2,31-8.3c10.8-1.1,22.4-0.9,32.2-5.9c9.4-4.7,17.1-14.3,27.3-17
	c12-3.2-2.5,19-4.9,22.9c-3,4.9-5.5,10.1-8.6,15c-1.7,2.7-3.9,4.9-6.3,6.9c-2.1,1.8-4.7,3-6.2,5.3c-2.4,3.5-7.1,5.3-11.2,4.3
	c-2.9-0.7-4.8-3.2-7.6-4.1c-2.6-0.9-6-1.2-8.7-1.2c-9.5,0.1-18.7,3.7-28.3,1.3c-3.6-0.9-13.4-4.5-14.2-8.5c-0.6-3,5.6-10.1,7.1-12.5
	"/>
<path class="st14" d="M93.2,21.7c1,1.4,1.4,3.3,1.3,5c-0.1,1.5-0.9,4.3-2.4,4.8c-0.9,0.3-2.9-0.3-3.4-1.2c-0.6-1-0.7-2.4-0.7-3.6
	c0-2.1,0.3-5.7,2-7.1C91.1,18.7,92.6,20.7,93.2,21.7z"/>
<path class="st11" d="M42.4,60.7c-3.8,10.7-16.9,16.1-25.5,22.6c-0.8,0.6,0,2,0.8,1.4c9.1-7,22.2-12.1,26.3-23.6
	C44.3,60.2,42.7,59.7,42.4,60.7L42.4,60.7z"/>
<path class="st0" d="M87.2,10.1c-3.1,4.4-6.1,9-7.1,14.3c2.6,0.5,5.1,1,7.7,1.6c0.2-3.8,1.4-7.4,2.6-11c0.9-2.7,1-3.2,2.6-5.5
	c0.8-1.1,2.4-4.3,3.2-5.4c0.4-0.6,2.6-3.5,1.9-4c-0.8-0.7-3.3,1.6-3.9,2C91.4,4.3,89.2,7.2,87.2,10.1z"/>
<path class="st0" d="M17.4,30.1c2.5,0.7,5,1.5,7,2.8c2.3,1.5,4.5,3.9,6.4,5.8c1.9,2,3.4,4.4,5.6,6.1c0.9,0.7,1.9,1.6,1.6,2.7
	c-0.1,0.4-0.5,0.7-0.8,1c-1.1,1.1-1.8,2.7-1.9,4.3c0-0.7-2.3-2.8-2.8-3.4c-1.1-1.2-2.2-2.5-3.4-3.6c-2.3-2.3-4.8-4.5-7.5-6.4
	c-2.7-1.9-5.6-3-8.5-4.5c-2.8-1.5-3.7-3.3-4.7-6c1.8-0.6,4.2-0.1,6,0.4C15.2,29.6,16.3,29.8,17.4,30.1z"/>
<path class="st15" d="M23.6,219.9c1.8,0.7,3.5,1.8,5.2,2.8c7,4.4,14,8.8,21.1,13.2c-2.1,5.6-4.9,11-8.4,16c-0.8,1.2-1.6,2.3-2.7,3.2
	c-0.5,0.4-1,0.7-1.5,1.1c-0.6,0.5-1.2,1-1.8,1.6c-1.3,1.2-2.6,2.5-4,3.7c-0.5,0.5-1,1-1.6,1.4c-1,0.7-2.2,1.1-3.4,1.5
	c-3.4,1.2-6.9,2.2-10.5,3.1c-3.4,0.9-7.3,1.5-10.3-0.2c-2.4-1.4-3.8-4-4.6-6.7c-1.4-4.5-1.5-9.4-0.2-14c0.7-2.4,1.7-4.7,2.7-6.9
	c2.5-5.4,5.2-10.7,8.2-15.9c0.8-1.3,3.1-6.8,4.5-6.9c0.8,0,2.5,1.3,3.3,1.6C21,219,22.3,219.3,23.6,219.9z"/>
<path class="st16" d="M49.6,237.6c-4.8,7.7-8.1,16.9-15.3,22.5c-3.4,2.6-7.5,4.3-11.7,5.3c-2.5,0.6-5.1,1-7.6,0.8
	c-2.7-0.2-4.6-1.2-6.8-2.6c-6.3-4-6.5-10.9-5.5-17.9c0.6-4.6,1.7-6.9,3.4-11.1c1.9-4.5,4.9-11.4,7.9-15.3c2.1-2.7,4.2-1.2,6.6,0.2
	c6.4,3.7,12.7,7.5,18.9,11.5C40.4,231.5,49.7,237.5,49.6,237.6z"/>
<path class="st17" d="M30,51.6c14.7-0.7,29.6-4.4,41.3-13.4c3.1-2.4,6.1-5.3,7.4-9c0.1-0.4,0.2-0.8,0-1.2c-0.2-0.3-0.7-0.5-1.1-0.5
	c-1.4-0.3-2.7-0.5-4.1-0.5c-4.4-0.1-8.4,2.2-12.3,4.1C56,33.5,50.6,35.3,45,36.4c-5.3,1.1-11.4,0.4-16.6,1.9c-3,0.9-6.3,4.5-6.8,7.6
	C20.9,50.8,26.4,51.8,30,51.6z"/>
<path class="st18" d="M73.5,8.1c-13.6-2.9-26.1-1-35.8,9.4C32.2,23.4,15,42,32.8,43.2c10.4,0.7,26.5-4.6,36-8.7
	c5-2.2,14.2-6.6,15.9-12.3C86.7,15.8,79.1,9.2,73.5,8.1z"/>
<path class="st19" d="M71.6,9.7c-10.7-2.3-20.4-0.8-28,7.4c-4.3,4.6-17.7,19.1-3.8,20.1c8.2,0.6,20.7-3.6,28.2-6.8
	c3.9-1.7,11.1-5.1,12.5-9.6C82,15.8,76,10.6,71.6,9.7z"/>
<ellipse class="st20" cx="48.7" cy="9.3" rx="4.8" ry="4.2"/>
<ellipse class="st21" cx="49.1" cy="7.9" rx="1.6" ry="1.5"/>
<path class="st22" d="M43.5,14.4C36.6,18.9,31.4,24.3,28,32c-1.5,3.3-1.2,10.1,4.1,8.2c1.3-0.4,0.7-2.5-0.6-2.1
	c-4.6,1.6-0.6-7.1,0.1-8.3c1.1-1.7,2.2-3.4,3.3-5.1c2.6-3.9,5.8-6,9.6-8.5C45.7,15.5,44.6,13.6,43.5,14.4L43.5,14.4z"/>
<ellipse class="st23" cx="35.4" cy="39.4" rx="1.3" ry="1.2"/>
<path class="st24" d="M71.3,110.8c-3.4,2.7-6.9,5.2-10.1,8.1c-2.9,2.7-5,6.1-7.1,9.5c-5,7.8-8.2,15.8-10.5,24.7
	c-0.3,1.3,1.7,1.9,2.1,0.6c2.3-8.7,5.4-16.6,10.3-24.2c2.3-3.6,4.6-7.2,7.9-10c2.9-2.5,6-4.8,9-7.2C73.9,111.5,72.4,110,71.3,110.8
	L71.3,110.8z"/>
<path class="st25" d="M151,209.8c0.9,1.3,2,2.3,3.3,3.3c1.2,0.9,2.6,1.9,4.2,1.8c1.4-0.1,1.4-2.2,0-2.1c-1.1,0.1-2.2-0.8-3.1-1.5
	c-0.9-0.7-1.8-1.5-2.5-2.5C152.1,207.6,150.2,208.6,151,209.8L151,209.8z"/>
<path class="st25" d="M159,208.7c2.8,2.6,7.2,4.8,11.1,4.3c1.4-0.2,0.8-2.3-0.6-2.1c-3,0.4-6.8-1.8-9-3.7
	C159.5,206.2,158,207.8,159,208.7L159,208.7z"/>
<path class="st25" d="M168.5,206.2c1.9,1.6,4.3,1.6,6.7,1.7c2.7,0,5.2-0.3,7.7-1.6c1.2-0.6,0.1-2.5-1.1-1.9
	c-2.7,1.4-9.2,2.4-11.7,0.2C169,203.8,167.4,205.3,168.5,206.2L168.5,206.2z"/>
<path class="st25" d="M175,201.2c4.4,3.2,12.6-0.3,15.5-4c0.8-1.1-0.7-2.6-1.5-1.5c-2.3,3-9.4,6.3-12.9,3.7
	C174.9,198.5,173.9,200.4,175,201.2L175,201.2z"/>
<path class="st25" d="M180.4,194.6c3,0.1,5.3-0.7,8.1-1.9c2.5-1.1,3.9-3.5,5.5-5.5c0.9-1.1-0.7-2.6-1.5-1.5c-1.6,2-2.9,4.2-5.3,5.3
	c-2.3,0.9-4.2,1.6-6.7,1.5C179,192.4,179.1,194.5,180.4,194.6L180.4,194.6z"/>
<path class="st25" d="M183.6,187.5c4.8-2.6,9.1-5.4,11-10.8c0.5-1.3-1.6-1.9-2.1-0.6c-1.7,4.7-5.8,7.2-10.1,9.5
	C181.3,186.3,182.4,188.2,183.6,187.5L183.6,187.5z"/>
<path class="st25" d="M188.4,164.2c1.1,5-1.3,10.2-5.4,13c-1.1,0.8-0.1,2.6,1.1,1.9c5-3.4,7.7-9.5,6.4-15.4
	C190.2,162.3,188.1,162.8,188.4,164.2L188.4,164.2z"/>
<path class="st26" d="M40.9,68.6c-6.4,5.8-13.6,10.7-21.3,14.6c1.2,0.3,2.5,0.1,3.8-0.2c5-1,9.8-2.8,14.3-5.3
	c4.2-2.4,8.1-5.3,11.7-8.5c3.5-3,6.5-8.6,8.2-12.9c0.6-1.6,1.1-3.3,0.9-5c-0.9-6.6-11.1,0.5-12.5,3.9C43.9,60.1,45.3,64.7,40.9,68.6
	z"/>
<path class="st27" d="M11,30.8c4.6,0.8,8.7,2.5,12.5,5.2c1.1,0.8,2.2-1.1,1.1-1.9c-3.9-2.8-8.3-4.6-13-5.4
	C10.2,28.5,9.6,30.5,11,30.8L11,30.8z"/>
<path class="st28" d="M70.2,110.4c-8,4.9-13.7,11.2-18.3,19.5c-4.3,7.7-9.1,17.1-9.7,26c-0.1,1.4,2.1,1.4,2.1,0
	c0.6-8.5,5.3-17.5,9.4-24.9c4.4-7.9,9.8-13.9,17.5-18.7C72.4,111.5,71.4,109.7,70.2,110.4L70.2,110.4z"/>
<path class="st29" d="M59.8,145.5c-1.2,1.9-2.4,3.8-3.1,5.9c-0.2,0.6-0.3,1.2-0.7,1.6c-1.1,1.4-3.3,0.8-4.9-0.1
	c3.4-5.3,7.5-12.7,12.5-16.6c2.6-2,3.2-1,1.7,1.5C63.9,140.5,61.4,142.9,59.8,145.5z"/>
<path class="st30" d="M43.8,233.5c-0.1,0.4-0.3,0.8-0.4,1.2c-3.4,7.3-5.6,14.7-12.1,19.9c-7.4,5.9-20.2,6.4-28.3,0.8
	c0.7,3.2,2.3,6.1,5.6,8.2c2.2,1.4,4.2,2.4,6.8,2.6c2.6,0.2,5.1-0.2,7.6-0.8c4.2-1,8.3-2.7,11.7-5.3c7.2-5.6,10.5-14.7,15.3-22.5
	C49.9,237.6,46.6,235.4,43.8,233.5z"/>
<path class="st29" d="M69.3,137.7c-1.3-0.5-2.2-3-2.9-4.1c-0.8-1.4-2.1-2.8-2.1-4.5c0-1-1.6-1-1.6,0c0,2.2,1.6,4,2.7,5.9
	c1,1.6,1.8,3.5,3.5,4.2C69.8,139.7,70.3,138.1,69.3,137.7L69.3,137.7z"/>
<path class="st31" d="M86.1,15.8c0.3-3.2,2.5-5.3,4.5-7.5c2-2.2,3.6-4.4,6.2-5.9c1.2-0.7,0.1-2.6-1.1-1.9c-3.2,1.9-5.3,4.8-7.8,7.6
	c-2.1,2.3-3.7,4.5-4,7.7C83.8,17.2,86,17.2,86.1,15.8L86.1,15.8z"/>
<path class="st32" d="M114.5,265c-11,2.6-22.4,2-33.6,1.9c-2.4,0-5-0.5-7.3-1.5c-0.3,1-0.4,2-0.3,3.1c0,0.6,0.1,1.2,0.5,1.6
	c0.3,0.3,0.6,0.5,1,0.6c3.8,1.7,8,1.7,12.1,1.7c8.1,0,16.2,0,24.2-0.1c1.4,0,3.1-0.2,3.7-1.4c0.3-0.7,0.3-1.5,0.2-2.2
	C114.9,267.6,114.7,266.4,114.5,265z"/>
<path class="st33" d="M84.4,127.4l-55.1,95.5c-0.9,1.5-0.3,3.5,1.2,4.3l2.4,1.4c1.5,0.9,3.5,0.3,4.3-1.2L93.4,130
	C90.4,129.9,87.1,129,84.4,127.4z"/>
<path class="st34" d="M131.2,159.7c-0.8-7.2-2.6-14.4-5.6-21c-0.7-1.6-1.6-2.9-2.6-4.2c-0.8,0.6-1.7,1.2-2.6,1.7
	c3.1,8.9,1.2,18.2-6.1,24.7c-4.8,4.3-11.8,7.2-19.2,8.3c0.1,0,0.2,0.1,0.3,0.1c6.3,1.5,12.6,3,18.9,4.5c2.9,0.7,5.9,1.4,8.7,2.7
	c2.6,1.2,4.6,3.3,7,4.7C133.6,177.3,131.7,164.7,131.2,159.7z"/>
<path class="st35" d="M55.6,106.9c6.3-0.3,12.5-1.6,18.7-1.4c1.7,0.1,3.4,0.2,5,0.2c10-0.3,20.4-8.7,26.1-16.4
	c2.8-3.8,5.6-7.3,7.7-11.6c1-2.1,2-4.3,3.1-6.4c0.6-1.1,3.6-4.1,3.7-5.1c-0.3,4.3-2.2,8.4-4.2,12.3c-6.5,13-13.8,26.5-26.2,34.2
	c-3.7,2.3-8.3,4-12.2,2c-1.2-0.6-2.2-1.5-3.3-2.2c-3.8-2.4-8.5-2.5-13-2.6c-4.6,0-9.2-0.1-13.9-0.1c-2.7,0-5.4-0.1-8.1-0.4
	c-4.9-0.7-9.5-2.5-14-4.5c-1.7-0.8-5.3-4.4-1.9-5.6c2.2-0.8,6.3,2.3,8.1,3.1C39,105.7,47.3,107.3,55.6,106.9z"/>
<path class="st11" d="M42.7,111.1c11,0.8,20.3-5.9,23.8-16.2c0.3-1-1.2-1.4-1.6-0.4c-3.2,9.7-12,15.8-22.2,15.1
	C41.7,109.4,41.7,111,42.7,111.1L42.7,111.1z"/>
<path class="st11" d="M9.4,89c0.4-1.4,2-2.6,3.2-3.4c2.1-1.4,4.5-2.3,7-2.7c2.3-0.3,4.9,0,6.3,1.8c1,1.3,1.2,3.1,1.2,4.7
	c-0.1,3.9-1.1,7.9-3,11.3c-3.5,6.5-12.4-1.8-13.7-5.8c-0.5-1.5-1.3-4.1-1-5.8C9.4,89.2,9.4,89.1,9.4,89z"/>
<path class="st36" d="M11,88.9c0.3-1,1.6-1.8,2.4-2.3c1.6-1,3.5-1.6,5.4-1.8c1.7-0.2,3.8,0,4.9,1.2c0.8,0.9,0.9,2.1,0.9,3.2
	c-0.1,2.7-0.9,5.3-2.3,7.7c-0.5,0.8-1.2,1.7-2.3,1.8c-1,0.1-1.7-0.6-2.6-1c-1.1-0.4-2.3-0.8-3.2-1.5c-1.2-0.8-2-2-2.4-3.3
	c-0.4-1-1-2.8-0.8-3.9C11,89,11,89,11,88.9z"/>
<ellipse class="st37" cx="14.3" cy="89.4" rx="2.8" ry="2.4"/>
<ellipse class="st4" cx="105.6" cy="261.6" rx="5" ry="4.4"/>
<ellipse transform="matrix(0.8881 -0.4597 0.4597 0.8881 -109.9921 69.9857)" class="st4" cx="88.7" cy="260.9" rx="1.9" ry="5"/>
<ellipse transform="matrix(0.8881 -0.4597 0.4597 0.8881 -107.9142 72.0893)" class="st4" cx="94.1" cy="257.7" rx="1.9" ry="5"/>
<path class="st38" d="M111.7,104.3c1.8,0.6,3.2,2.1,4.5,3.6c7.3,8.7,12,19.6,13.4,30.9c0.3,2.8,0.3,6-1.9,7.7
	c-0.9,0.7-2.1,1-3.3,1.3c-7.6,1.9-15.9,2.9-22.9-0.7c-0.2-0.1-0.5-0.3-0.7-0.5c-0.2-0.3-0.1-0.8-0.1-1.2c0.6-3.2,1.3-6.4,1.9-9.5
	c0.1-0.3,0.2-0.7,0.4-1c0.4-0.4,0.9-0.3,1.4-0.3c3.7,0.2,7.3-0.2,10.9-1.2c-1.3,0.4-6-6.8-6.7-7.9c-2-3-3.4-6.2-4.6-9.6
	C102.3,110.9,104.6,101.8,111.7,104.3z"/>
<path class="st28" d="M104,107.1c-1.9,6.4,2.3,12.2,5.3,17.5c1,1.8,2,3.5,3.1,5.2c0.6,1,1.3,1.9,1.9,2.8c1.5,1.1,1.4,1.6-0.1,1.6
	c-1.4,0.9-4.1,0.2-5.7,0.3c-1.7,0.1-3,0.3-4.6,0.9c-1.3,0.5-0.7,2.5,0.6,2.1c3.5-1.2,8.7,0.5,11.8-1.3c1.1-0.6,1.5-1,1.3-2.4
	c-0.2-1.4-2.1-3.2-2.9-4.3c-1.3-1.9-2.5-3.9-3.6-5.9c-2.7-4.7-6.8-10.2-5.1-15.8C106.5,106.4,104.4,105.8,104,107.1L104,107.1z"/>
<path class="st39" d="M101.7,152c-0.8,0.6-1.9,0.4-2.7,0c-0.9-0.4-1.6-1-2.5-1.4c-0.9-0.3-1.9-0.4-2.8-0.5c-4-0.3-8.1-1.2-11.2-3.7
	c-1.4-1.1-2.5-2.5-3.6-3.9c-0.9-1.2-1.8-2.5-2.3-4s-0.5-3.2,0.4-4.5c0.7-1.1,1.9-1.8,2.8-2.8c1-1,1.6-2.2,2.4-3.3
	c1.5-2,3.6-3.7,5.9-4.7c1.5-0.6,3.1-1,4.6-0.5c1.9,0.6,3.1,2.5,4.4,4.1c1.6,2,3.6,3.4,5.7,4.8c1.8,1.1,2.2,2.1,1.6,4.2
	C102.8,141.2,102,146.3,101.7,152z"/>
<path class="st40" d="M97.5,135c1.4,1.2,2.7,2.6,3.9,4c0,0,0.1,0.1,0.1,0.1c0.3,0.3,0.8,0.6,1.2,0.9c0.8,0.5,0.5,0.4,0,0
	c-0.2-0.1-0.5-0.3-0.9-0.5c0,0,0,0,0.1,0.1c0.5,0.3,1,0.6,1.4,0.9c0.3-1.5,0.7-3,1.2-4.6c0.6-2.1,0.3-3-1.6-4.2
	c-2.2-1.3-4.1-2.8-5.7-4.8c-1.3-1.6-2.5-3.5-4.4-4.1c-1.5-0.5-3.2-0.1-4.6,0.5c-2.3,1-4.4,2.6-5.9,4.7c-0.2,0.2-0.3,0.5-0.5,0.7
	C87.5,129.4,93,130.9,97.5,135z"/>
<path class="st41" d="M77.9,136.2c1.8,3.7,4.4,6.7,7.9,8.9c4.1,2.5,8.8,2.8,13.1,4.6c1.3,0.5,1.8-1.5,0.6-2.1
	c-3.8-1.6-7.9-1.8-11.6-3.7c-3.7-1.9-6.4-5-8.2-8.7C79.1,133.9,77.3,135,77.9,136.2L77.9,136.2z"/>
<path class="st42" d="M6,246.1L6,246.1c-0.5-0.2-0.8-0.9-0.5-1.4L16,221.6c0.2-0.5,0.9-0.8,1.4-0.5h0c0.5,0.2,0.8,0.9,0.5,1.4
	L7.4,245.5C7.1,246.1,6.5,246.3,6,246.1z"/>
<path class="st43" d="M33,223.6c13.6-22.7,27.2-45.3,40.9-68c2-3.3,4-6.6,5.9-9.9c0.7-1.2-1.1-2.3-1.9-1.1
	c-13.6,22.7-27.2,45.3-40.9,68c-2,3.3-4,6.6-5.9,9.9C30.4,223.7,32.2,224.7,33,223.6L33,223.6z"/>
<path class="st39" d="M35.8,161.8c0-0.5,0.2-1,0.5-1.4c0.7-1,2.6-1.7,3.7-2.4c1.5-0.9,3.1-1.7,4.7-2.4c3.1-1.3,6.5-2.1,9.9-2.4
	c0.7-0.1,1.4-0.1,2,0.1c1.7,0.7,2.1,2.9,2.1,4.8c0,1.5,0.1,3,0.1,4.6c0,1.5,0.1,3.1,1,4.2c1,1.2,2.7,1.6,3.7,2.8
	c0.8,0.9,1.2,2.1,1.5,3.3c0.5,2.2,0.9,4.5,0.4,6.7c-0.8,3-3.4,5.2-5.9,7c-0.8,0.6-1.6,1.1-2.5,1.5c-2,0.9-4.4,0.8-6.4-0.2
	c-2-1-3.5-2.9-3.9-5c-0.2-0.7-0.2-1.5-0.5-2.3c-0.2-0.8-0.7-1.5-1.1-2.2c-2.7-4.5-5.5-9-8.2-13.5C36.3,164.1,35.7,162.9,35.8,161.8z
	"/>
<path class="st40" d="M65,172.8c-0.3-1.2-0.6-2.4-1.5-3.3c-1.1-1.1-2.7-1.6-3.7-2.8c-0.9-1.1-1-2.7-1-4.2c0-1.5-0.1-3-0.1-4.5
	c0-1.9-0.4-4.1-2.1-4.8c-0.6-0.2-1.3-0.2-2-0.1c-1.4,0.1-2.7,0.4-4,0.7c3,3.2,5.4,6.8,5.5,11.5c0,1-0.1,2-0.2,2.9
	c3,3,4.9,7,5.1,11.2c0.1,2.5-0.3,4.7-1,6.8c2.4-1.8,4.7-3.9,5.5-6.7C66,177.3,65.6,175,65,172.8z"/>
<path class="st41" d="M38.1,160.4c1,8,9,12.2,9.7,20.4c0.4,4.8,2.7,8.3,8,7.4c1.4-0.2,0.8-2.3-0.6-2.1c-1.8-1.5-3.5-3.1-5.3-4.6
	c0-0.5,0-1,0-1.5c-0.1-0.6-0.1-1.2-0.2-1.8c-0.3-1.8-1-3.4-2-5c-2.6-4.3-6.9-7.5-7.6-12.9C40.1,159.1,37.9,159,38.1,160.4
	L38.1,160.4z"/>
<path class="st4" d="M27.7,213.4c0.6,0.9,1.9,1.3,2.8,0.8c0.8-0.5,1-1.7,1.1-2.7c0.1-1,0.1-2,0.2-3.1c0-0.3,0-0.6-0.1-0.9
	c-0.1-0.2-0.3-0.4-0.6-0.5c-1.5-1-3.9-2.2-4.3,0.2C26.4,209,26.6,212,27.7,213.4z"/>
<path class="st44" d="M29.2,218.7c-7.4,13.9-11.2,26-8.6,27.6c2.6,1.6,10.7-8,18.5-21.8C35.5,223.4,32.1,221.5,29.2,218.7z"/>
</svg>
